<?xml version="1.0" encoding="utf-8"?>
<!-- Generator: Adobe Illustrator 25.2.0, SVG Export Plug-In . SVG Version: 6.00 Build 0)  -->
<svg version="1.1" id="Capa_1" xmlns="http://www.w3.org/2000/svg" xmlns:xlink="http://www.w3.org/1999/xlink" x="0px" y="0px"
	 viewBox="0 0 463.94 164.28" style="enable-background:new 0 0 463.94 164.28;" xml:space="preserve">
<style type="text/css">
	.st0{fill:#FFFFFF;}
	.st1{fill:#F0CA30;}
	.st2{fill:#060606;}
</style>
<g>
	<path class="st0" d="M440.78,73.22c0.21-0.46,0.5-0.85,0.85-1.19c0.35-0.32,0.76-0.57,1.23-0.75c0.47-0.18,0.95-0.27,1.46-0.27
		c0.51,0,1,0.09,1.46,0.27c0.47,0.18,0.88,0.43,1.24,0.75c0.35,0.33,0.63,0.73,0.85,1.19c0.21,0.47,0.31,0.99,0.31,1.55
		c0,0.57-0.1,1.09-0.31,1.56c-0.21,0.46-0.5,0.85-0.85,1.18c-0.36,0.33-0.77,0.58-1.24,0.76c-0.46,0.17-0.95,0.26-1.46,0.26
		c-0.51,0-0.99-0.09-1.46-0.26c-0.47-0.18-0.88-0.42-1.23-0.76c-0.36-0.33-0.64-0.72-0.85-1.18c-0.22-0.47-0.32-0.99-0.32-1.56
		C440.45,74.21,440.56,73.68,440.78,73.22 M441.71,75.96c0.14,0.35,0.35,0.67,0.6,0.93c0.25,0.27,0.56,0.48,0.89,0.62
		c0.35,0.15,0.73,0.23,1.11,0.23c0.39,0,0.76-0.07,1.1-0.23c0.34-0.14,0.64-0.35,0.89-0.62c0.26-0.26,0.47-0.58,0.61-0.93
		c0.16-0.36,0.24-0.77,0.24-1.19c0-0.43-0.08-0.83-0.24-1.19c-0.14-0.36-0.35-0.66-0.61-0.93c-0.25-0.26-0.56-0.47-0.89-0.62
		c-0.35-0.14-0.72-0.21-1.1-0.21c-0.39,0-0.77,0.07-1.11,0.21c-0.34,0.15-0.64,0.36-0.89,0.62c-0.26,0.27-0.46,0.57-0.6,0.93
		c-0.15,0.36-0.22,0.75-0.22,1.19C441.49,75.19,441.56,75.6,441.71,75.96 M444.41,72.66c0.53,0,0.94,0.09,1.22,0.28
		c0.29,0.18,0.44,0.51,0.44,0.97c0,0.19-0.03,0.35-0.1,0.5c-0.06,0.14-0.13,0.25-0.23,0.33c-0.1,0.09-0.22,0.16-0.35,0.21
		c-0.14,0.05-0.28,0.07-0.44,0.09l1.13,1.84h-0.87l-1.02-1.8h-0.53v1.8h-0.83v-4.21H444.41z M444.4,74.42c0.24,0,0.43-0.03,0.59-0.1
		c0.16-0.07,0.24-0.23,0.24-0.49c0-0.11-0.03-0.21-0.09-0.27c-0.05-0.08-0.12-0.13-0.2-0.16c-0.08-0.04-0.17-0.06-0.28-0.08
		c-0.1-0.02-0.2-0.03-0.3-0.03h-0.71v1.11H444.4z"/>
	<path class="st0" d="M172.99,71.07v4.58h0.16c1.32-1.94,3-3.35,5.04-4.23c2.04-0.88,4.27-1.31,6.71-1.31c3.11,0,5.78,0.53,8.02,1.6
		c2.24,1.06,4.1,2.47,5.58,4.23c1.47,1.76,2.56,3.81,3.29,6.14c0.71,2.34,1.06,4.79,1.06,7.33c0,2.41-0.36,4.72-1.06,6.94
		c-0.73,2.22-1.8,4.19-3.25,5.9c-1.45,1.71-3.26,3.08-5.42,4.1c-2.16,1.01-4.69,1.52-7.6,1.52c-2.44,0-4.69-0.45-6.75-1.36
		c-2.06-0.9-3.75-2.23-5.09-3.99h-0.14v17.01h-10.84V71.07H172.99z M187.07,99.52c1.2-0.65,2.16-1.49,2.9-2.54
		c0.74-1.04,1.26-2.26,1.57-3.64c0.3-1.39,0.45-2.8,0.45-4.24c0-1.44-0.16-2.84-0.49-4.23c-0.33-1.38-0.88-2.63-1.64-3.71
		c-0.77-1.08-1.74-1.96-2.94-2.63c-1.2-0.67-2.66-1.01-4.4-1.01c-1.78,0-3.27,0.34-4.46,1.01c-1.2,0.67-2.17,1.54-2.89,2.6
		c-0.75,1.07-1.27,2.29-1.57,3.68c-0.3,1.39-0.45,2.83-0.45,4.3c0,1.44,0.16,2.85,0.49,4.24c0.34,1.39,0.86,2.6,1.61,3.64
		c0.73,1.04,1.72,1.89,2.94,2.54c1.22,0.64,2.69,0.97,4.43,0.97C184.4,100.49,185.88,100.16,187.07,99.52"/>
	<path class="st0" d="M233.6,106.95v-5h-0.23c-1.37,2.08-3.16,3.59-5.35,4.51c-2.19,0.92-4.43,1.39-6.72,1.39
		c-2.9,0-5.28-0.35-7.14-1.04c-1.86-0.7-3.31-1.68-4.39-2.95c-1.07-1.28-1.82-2.82-2.25-4.65c-0.43-1.84-0.65-3.86-0.65-6.07V71.07
		h10.84v20.27c0,2.96,0.51,5.17,1.53,6.63c1.02,1.45,2.82,2.18,5.41,2.18c2.96,0,5.1-0.79,6.42-2.39c1.32-1.6,1.98-4.22,1.98-7.88
		V71.07h10.83v35.88H233.6z"/>
	<path class="st0" d="M260.55,57.39v18.04h0.15c1.32-1.85,3.12-3.2,5.39-4.06c2.26-0.85,4.62-1.28,7.06-1.28
		c1.99,0,3.95,0.37,5.88,1.11c1.93,0.74,3.68,1.88,5.23,3.4c1.55,1.52,2.82,3.48,3.78,5.86c0.97,2.39,1.45,5.22,1.45,8.5
		c0,3.28-0.48,6.12-1.45,8.51c-0.96,2.38-2.23,4.34-3.78,5.86c-1.54,1.53-3.29,2.66-5.23,3.41c-1.93,0.74-3.89,1.11-5.88,1.11
		c-2.9,0-5.49-0.42-7.79-1.25c-2.29-0.84-4.01-2.24-5.19-4.23h-0.15v4.58h-10.31V57.39H260.55z M278.11,84.67
		c-0.36-1.39-0.92-2.62-1.68-3.68c-0.77-1.06-1.72-1.91-2.87-2.54c-1.15-0.62-2.53-0.93-4.16-0.93c-1.57,0-2.96,0.31-4.13,0.93
		c-1.17,0.63-2.13,1.47-2.9,2.54c-0.77,1.06-1.32,2.29-1.68,3.68c-0.36,1.39-0.53,2.85-0.53,4.37c0,1.48,0.17,2.91,0.53,4.31
		c0.36,1.39,0.92,2.61,1.68,3.68s1.73,1.91,2.9,2.53c1.17,0.63,2.55,0.94,4.13,0.94c1.63,0,3.01-0.31,4.16-0.94
		c1.15-0.62,2.1-1.47,2.87-2.53c0.76-1.06,1.32-2.29,1.68-3.68c0.36-1.39,0.54-2.83,0.54-4.31
		C278.65,87.52,278.47,86.06,278.11,84.67"/>
	<rect x="294.22" y="57.4" class="st0" width="10.84" height="49.55"/>
	<path class="st0" d="M311.47,57.39h10.84v8.11h-10.84V57.39z M322.31,106.95h-10.84V71.07h10.84V106.95z"/>
	<path class="st0" d="M347.27,77.52c-1.73,0-3.18,0.35-4.35,1.07c-1.17,0.72-2.12,1.64-2.87,2.78c-0.74,1.13-1.26,2.38-1.56,3.75
		c-0.31,1.37-0.46,2.71-0.46,4.06c0,1.29,0.16,2.61,0.46,3.96c0.3,1.33,0.8,2.55,1.49,3.64c0.69,1.08,1.62,1.97,2.79,2.67
		c1.17,0.69,2.59,1.04,4.27,1.04c2.59,0,4.59-0.66,5.99-1.97c1.4-1.32,2.28-3.08,2.63-5.31h10.46c-0.72,4.76-2.75,8.4-6.11,10.89
		c-3.36,2.5-7.65,3.75-12.9,3.75c-2.95,0-5.66-0.45-8.13-1.36c-2.46-0.9-4.57-2.16-6.3-3.78c-1.73-1.62-3.08-3.55-4.05-5.79
		c-0.96-2.24-1.45-4.71-1.45-7.39c0-2.78,0.45-5.36,1.33-7.74c0.89-2.38,2.2-4.45,3.94-6.18c1.73-1.74,3.83-3.09,6.33-4.06
		c2.49-0.97,5.35-1.46,8.55-1.46c2.34,0,4.6,0.28,6.75,0.84c2.17,0.55,4.1,1.4,5.81,2.53c1.7,1.14,3.09,2.54,4.16,4.23
		c1.07,1.69,1.68,3.69,1.83,6.01h-10.61C354.58,79.58,351.91,77.52,347.27,77.52"/>
	<path class="st0" d="M371.24,76.34c1.11-1.53,2.55-2.76,4.28-3.68c1.73-0.93,3.68-1.59,5.83-1.98c2.17-0.39,4.34-0.59,6.53-0.59
		c1.98,0,3.99,0.12,6.02,0.38c2.04,0.25,3.9,0.75,5.57,1.49c1.69,0.74,3.06,1.77,4.13,3.09c1.07,1.31,1.6,3.06,1.6,5.23v18.67
		c0,1.63,0.1,3.18,0.31,4.65c0.2,1.49,0.56,2.59,1.07,3.34H395.6c-0.2-0.55-0.37-1.12-0.5-1.7c-0.12-0.58-0.22-1.17-0.27-1.77
		c-1.73,1.62-3.76,2.76-6.1,3.4c-2.34,0.65-4.74,0.98-7.18,0.98c-1.89,0-3.64-0.2-5.27-0.63c-1.63-0.41-3.06-1.06-4.27-1.94
		c-1.23-0.87-2.18-1.98-2.86-3.32c-0.68-1.34-1.03-2.93-1.03-4.8c0-2.03,0.39-3.71,1.19-5.03c0.79-1.32,1.81-2.37,3.05-3.16
		c1.25-0.78,2.67-1.38,4.28-1.77c1.6-0.39,3.22-0.71,4.84-0.94c1.64-0.23,3.24-0.42,4.82-0.56c1.57-0.13,2.98-0.35,4.19-0.62
		c1.23-0.28,2.19-0.68,2.9-1.22c0.71-0.53,1.04-1.3,0.99-2.32c0-1.06-0.18-1.91-0.57-2.54c-0.38-0.62-0.88-1.11-1.52-1.45
		c-0.63-0.35-1.38-0.58-2.22-0.7c-0.84-0.11-1.74-0.17-2.71-0.17c-2.13,0-3.81,0.41-5.04,1.25c-1.22,0.83-1.94,2.22-2.14,4.16
		h-10.84C369.5,79.79,370.12,77.87,371.24,76.34 M392.66,90.26c-0.69,0.2-1.42,0.38-2.21,0.53c-0.79,0.13-1.62,0.25-2.48,0.34
		c-0.86,0.09-1.73,0.21-2.59,0.35c-0.81,0.14-1.62,0.33-2.41,0.55c-0.79,0.23-1.47,0.55-2.06,0.94c-0.58,0.39-1.06,0.9-1.42,1.49
		c-0.35,0.61-0.53,1.37-0.53,2.3c0,0.88,0.18,1.62,0.53,2.21c0.36,0.61,0.84,1.08,1.45,1.43c0.61,0.34,1.32,0.58,2.14,0.73
		c0.82,0.14,1.66,0.21,2.52,0.21c2.13,0,3.79-0.33,4.97-0.97c1.16-0.65,2.03-1.43,2.59-2.33c0.56-0.91,0.9-1.82,1.03-2.74
		c0.12-0.93,0.18-1.67,0.18-2.23v-3.67C393.92,89.76,393.35,90.05,392.66,90.26"/>
	<path class="st0" d="M421.48,71.07v6.67h0.14c0.51-1.11,1.2-2.14,2.06-3.09c0.86-0.95,1.86-1.75,2.98-2.43
		c1.12-0.67,2.31-1.2,3.59-1.55c1.26-0.37,2.6-0.56,3.97-0.56c0.72,0,1.5,0.11,2.37,0.34v9.17c-0.51-0.1-1.13-0.18-1.83-0.25
		c-0.71-0.07-1.4-0.1-2.07-0.1c-1.98,0-3.66,0.31-5.04,0.9c-1.37,0.6-2.48,1.42-3.32,2.46c-0.84,1.04-1.44,2.25-1.79,3.64
		c-0.36,1.39-0.54,2.89-0.54,4.51v16.17h-10.84V71.07H421.48z"/>
	<path class="st1" d="M137.25,82.1c0.01,33.55-27.17,60.77-60.71,60.78C43,142.91,15.78,115.72,15.76,82.18
		C15.75,48.63,42.92,21.41,76.47,21.4C110.02,21.38,137.23,48.56,137.25,82.1"/>
	<path class="st2" d="M85.89,40.71c-0.13,0-0.25,0.01-0.38,0.01v-0.01H73.51H45.01v66.1v16.77h28.49v-16.77h12.01v-0.01
		c0.13,0,0.26,0.02,0.38,0.02c18.25,0,33.05-14.8,33.05-33.05C118.94,55.51,104.14,40.71,85.89,40.71"/>
	<path class="st1" d="M85.94,114.38L85.94,114.38c-0.89-0.01-1.71-0.5-2.12-1.29L69.01,84.91c-0.02-0.04-0.04-0.07-0.05-0.1
		l-0.27-0.55c-1.56-3.32-3.05-6.46-3.05-10.51c0-11.18,9.1-20.28,20.28-20.28c11.18,0,20.27,9.1,20.27,20.28
		c0,4.34-2.08,8.95-2.16,9.15c-0.02,0.04-0.04,0.09-0.06,0.14l-15.91,30.05C87.65,113.89,86.83,114.38,85.94,114.38 M73.27,82.72
		l12.68,24.11l13.73-25.97c0.2-0.49,1.71-4.04,1.71-7.11c0-8.54-6.95-15.48-15.48-15.48c-8.53,0-15.48,6.94-15.48,15.48
		c0,2.98,1.15,5.39,2.6,8.45L73.27,82.72z"/>
	<path class="st1" d="M89.95,73.75c0,2.22-1.8,4.02-4.03,4.02c-2.22,0-4.02-1.8-4.02-4.02c0-2.22,1.8-4.02,4.02-4.02
		C88.15,69.73,89.95,71.53,89.95,73.75"/>
</g>
<g>
</g>
<g>
</g>
<g>
</g>
<g>
</g>
<g>
</g>
<g>
</g>
</svg>
